<svg width="25" height="25" viewBox="0 0 25 25" fill="none" xmlns="http://www.w3.org/2000/svg">
<path d="M15.8232 21.2599C15.6332 21.2599 15.4432 21.1899 15.2932 21.0399C15.0032 20.7499 15.0032 20.2699 15.2932 19.9799L20.3032 14.9699C20.5932 14.6799 21.0732 14.6799 21.3632 14.9699C21.6532 15.2599 21.6532 15.7399 21.3632 16.0299L16.3532 21.0399C16.2032 21.1799 16.0132 21.2599 15.8232 21.2599Z" fill="#020B2A"/>
<path d="M20.8333 16.24H3.83325C3.42325 16.24 3.08325 15.9 3.08325 15.49C3.08325 15.08 3.42325 14.74 3.83325 14.74H20.8333C21.2433 14.74 21.5833 15.08 21.5833 15.49C21.5833 15.9 21.2433 16.24 20.8333 16.24Z" fill="#020B2A"/>
<path d="M3.83319 10.2599C3.64319 10.2599 3.45319 10.1899 3.30319 10.0399C3.01319 9.74994 3.01319 9.26994 3.30319 8.97994L8.31319 3.96994C8.60319 3.67994 9.08319 3.67994 9.37319 3.96994C9.66319 4.25994 9.66319 4.73994 9.37319 5.02994L4.36319 10.0399C4.22319 10.1799 4.02319 10.2599 3.83319 10.2599Z" fill="#020B2A"/>
<path d="M20.8333 10.26H3.83325C3.42325 10.26 3.08325 9.92001 3.08325 9.51001C3.08325 9.10001 3.42325 8.76001 3.83325 8.76001H20.8333C21.2433 8.76001 21.5833 9.10001 21.5833 9.51001C21.5833 9.92001 21.2433 10.26 20.8333 10.26Z" fill="#020B2A"/>
</svg>
